<svg width="573" height="432" viewBox="0 0 573 432" fill="none" xmlns="http://www.w3.org/2000/svg">
<path d="M151.18 67.7077C151.18 67.7077 95.8623 120.296 106.417 193.259C116.972 266.221 181.698 322.569 232.637 369.455C283.577 416.341 355.89 422.78 408.056 386.896C460.221 351.013 432.041 305.633 461.516 240.938C490.992 176.242 510.21 162.538 494.395 95.5887C478.58 28.6398 383.909 -13.6588 289.674 4.03554C195.438 21.7299 151.18 67.7077 151.18 67.7077Z" fill="#359A9C"/>
<path opacity="0.7" d="M151.18 67.7077C151.18 67.7077 95.8623 120.296 106.417 193.259C116.972 266.221 181.698 322.569 232.637 369.455C283.577 416.341 355.89 422.78 408.056 386.896C460.221 351.013 432.041 305.633 461.516 240.938C490.992 176.242 510.21 162.538 494.395 95.5887C478.58 28.6398 383.909 -13.6588 289.674 4.03554C195.438 21.7299 151.18 67.7077 151.18 67.7077Z" fill="white"/>
<path d="M295.162 43.6899H124.156V190.879H295.162V43.6899Z" fill="#359A9C"/>
<path d="M286.603 51.0483H132.707V183.521H286.603V51.0483Z" fill="white"/>
<mask id="mask0_243_488" style="mask-type:luminance" maskUnits="userSpaceOnUse" x="132" y="51" width="155" height="133">
<path d="M286.603 51.0483H132.707V183.521H286.603V51.0483Z" fill="white"/>
</mask>
<g mask="url(#mask0_243_488)">
<path d="M286.603 91.2085C258.927 110.961 219.287 124.068 173.298 144.66C158.807 151.044 145.17 159.224 132.707 169.011V183.532H286.603V91.2085Z" fill="#359A9C"/>
<path d="M286.605 51.0483H224.847C217.971 56.9465 209.846 63.5344 200.242 70.5938C165.094 96.4513 180.325 122.332 222.509 103.499C244.157 93.8529 268.257 71.5136 286.605 52.0486V51.0483Z" fill="#359A9C"/>
<path d="M159.296 65.9029C159.296 55.1069 145.899 63.6035 132.766 74.457V101.717C145.544 89.139 159.296 75.5607 159.296 65.9029Z" fill="#359A9C"/>
<path d="M172.128 108.811C172.128 111.253 171.406 113.641 170.054 115.671C168.701 117.702 166.779 119.285 164.53 120.219C162.281 121.154 159.806 121.398 157.419 120.922C155.031 120.445 152.838 119.269 151.117 117.542C149.395 115.816 148.223 113.615 147.748 111.22C147.273 108.825 147.517 106.342 148.449 104.086C149.38 101.829 150.958 99.9008 152.982 98.5439C155.006 97.1871 157.385 96.4629 159.82 96.4629C163.084 96.4629 166.215 97.7639 168.523 100.08C170.831 102.395 172.128 105.536 172.128 108.811Z" fill="#359A9C"/>
<path opacity="0.75" d="M286.603 91.2085C258.927 110.961 219.287 124.068 173.298 144.66C158.807 151.044 145.17 159.224 132.707 169.011V183.532H286.603V91.2085Z" fill="white"/>
<path opacity="0.75" d="M286.605 51.0483H224.847C217.971 56.9465 209.846 63.5344 200.242 70.5938C165.094 96.4513 180.325 122.332 222.509 103.499C244.157 93.8529 268.257 71.5136 286.605 52.0486V51.0483Z" fill="white"/>
<g opacity="0.75">
<path d="M159.296 65.9029C159.296 55.1069 145.899 63.6035 132.766 74.457V101.717C145.544 89.139 159.296 75.5607 159.296 65.9029Z" fill="white"/>
</g>
<path opacity="0.75" d="M172.128 108.811C172.128 111.253 171.406 113.641 170.054 115.671C168.701 117.702 166.779 119.285 164.53 120.219C162.281 121.154 159.806 121.398 157.419 120.922C155.031 120.445 152.838 119.269 151.117 117.542C149.395 115.816 148.223 113.615 147.748 111.22C147.273 108.825 147.517 106.342 148.449 104.086C149.38 101.829 150.958 99.9008 152.982 98.5439C155.006 97.1871 157.385 96.4629 159.82 96.4629C163.084 96.4629 166.215 97.7639 168.523 100.08C170.831 102.395 172.128 105.536 172.128 108.811Z" fill="white"/>
</g>
<path d="M260.005 148.189C260.005 151.446 259.042 154.63 257.239 157.337C255.435 160.045 252.871 162.155 249.872 163.401C246.872 164.647 243.572 164.972 240.389 164.336C237.205 163.7 234.281 162.131 231.986 159.827C229.692 157.523 228.129 154.589 227.498 151.394C226.866 148.2 227.192 144.889 228.436 141.881C229.68 138.873 231.785 136.302 234.485 134.494C237.186 132.686 240.36 131.723 243.606 131.725C245.76 131.725 247.894 132.151 249.884 132.979C251.875 133.806 253.683 135.019 255.206 136.548C256.729 138.077 257.937 139.892 258.76 141.89C259.583 143.887 260.007 146.028 260.005 148.189Z" fill="white"/>
<path d="M491.334 347.081C488.359 350.542 486.351 354.731 485.512 359.222L473.834 365.787V334.745L474.064 335.055L492.663 321.396C495.012 321.764 504.043 322.799 512.271 318.349C521.829 313.187 528.808 295.504 528.808 295.504C528.808 295.504 506.025 292.917 498.313 302.506C492.056 310.278 491.838 317.809 491.987 320.373L473.834 333.698V310.761C477.234 309.173 480.239 306.846 482.631 303.949C485.024 301.051 486.744 297.656 487.667 294.01C490.967 281.11 473.342 255.689 473.342 255.689C473.342 255.689 455.006 281.857 458.638 295.125C461.755 306.358 470.098 309.922 472.608 310.75V360.476L459.544 349.519C459.842 346.897 460.082 338.7 452.805 330.491C443.981 320.534 420.477 321.293 420.477 321.293C420.477 321.293 430.389 341.195 438.813 347.829C446.193 353.577 456.381 351.278 458.833 350.576L472.585 362.074V377.193H452.129L460.483 429.575H485.546L493.924 377.204H473.834V367.202L486.67 359.981C489.787 360.855 498.508 362.649 506.759 358.51C517.073 353.347 525.496 342.287 525.496 342.287C525.496 342.287 500.891 336.021 491.334 347.081Z" fill="#359A9C"/>
<path opacity="0.5" d="M491.334 347.081C488.359 350.542 486.351 354.731 485.512 359.222L473.834 365.787V334.745L474.064 335.055L492.663 321.396C495.012 321.764 504.043 322.799 512.271 318.349C521.829 313.187 528.808 295.504 528.808 295.504C528.808 295.504 506.025 292.917 498.313 302.506C492.056 310.278 491.838 317.809 491.987 320.373L473.834 333.698V310.761C477.234 309.173 480.239 306.846 482.631 303.949C485.024 301.051 486.744 297.656 487.667 294.01C490.967 281.11 473.342 255.689 473.342 255.689C473.342 255.689 455.006 281.857 458.638 295.125C461.755 306.358 470.098 309.922 472.608 310.75V360.476L459.544 349.519C459.842 346.897 460.082 338.7 452.805 330.491C443.981 320.534 420.477 321.293 420.477 321.293C420.477 321.293 430.389 341.195 438.813 347.829C446.193 353.577 456.381 351.278 458.833 350.576L472.585 362.074V377.193H452.129L460.483 429.575H485.546L493.924 377.204H473.834V367.202L486.67 359.981C489.787 360.855 498.508 362.649 506.759 358.51C517.073 353.347 525.496 342.287 525.496 342.287C525.496 342.287 500.891 336.021 491.334 347.081Z" fill="white"/>
<path d="M468.176 188.821L434.45 189.108C434.45 189.108 432.158 188.821 431.665 190.499C431.665 190.499 425.809 205.331 425.534 210.643C425.259 215.954 426.68 215.115 424.388 222.14C422.096 229.165 415.747 245.629 412.126 259.058C407.255 277.097 405.983 296.252 405.674 314.877C405.674 317.867 403.84 343.621 408.481 343.621C412.332 343.621 447.824 348.346 448.248 341.482C449.955 314.119 445.027 287.387 454.493 260.783C458.172 250.435 462.389 239.535 465.518 228.728C468.646 217.92 469.185 206.676 471.248 195.616C472.634 187.981 468.176 188.821 468.176 188.821Z" fill="#263238"/>
<path d="M471.489 192.178C471.157 188.269 468.177 188.821 468.177 188.821L434.451 189.108C434.451 189.108 432.159 188.821 431.666 190.499C431.666 190.499 425.81 205.331 425.535 210.643C425.452 212.046 425.49 213.454 425.649 214.851L426.36 216C426.36 216 427.506 225.785 440.857 226.348C454.208 226.911 461.771 220.749 464.556 214.851C467.341 208.953 468.464 199.467 470.687 193.868C470.926 193.291 471.194 192.727 471.489 192.178Z" fill="#359A9C"/>
<path d="M463.66 203.1C461.368 211.275 462.755 213.54 460.497 227.612C458.239 241.685 450.091 257.506 446.917 272.096C443.743 286.686 445.118 337.906 445.565 340.183C445.742 341.389 445.807 342.609 445.76 343.827C447.284 343.253 448.201 342.471 448.269 341.402C449.977 314.038 445.049 287.307 454.515 260.702C458.194 250.354 462.411 239.455 465.539 228.647C468.668 217.84 469.207 206.595 471.269 195.535C472.129 190.936 470.777 189.43 469.596 188.981C467.033 193.418 465.039 198.162 463.66 203.1Z" fill="#359A9C"/>
<path d="M398.511 409.627L398.282 409.443V377.848H402.808V357.877H386.077V377.848H390.592V409.983L350.551 422.791V425.965C350.551 426.928 350.932 427.852 351.611 428.534C352.291 429.215 353.212 429.598 354.172 429.598C355.133 429.598 356.054 429.215 356.733 428.534C357.412 427.852 357.793 426.928 357.793 425.965V425.516L391.28 421.607V426.425C391.28 427.266 391.613 428.073 392.206 428.668C392.799 429.263 393.604 429.598 394.443 429.598C395.281 429.598 396.086 429.263 396.679 428.668C397.272 428.073 397.606 427.266 397.606 426.425V421.446L432.444 425.516V425.965C432.444 426.928 432.825 427.852 433.505 428.534C434.184 429.215 435.105 429.598 436.065 429.598C437.026 429.598 437.947 429.215 438.626 428.534C439.305 427.852 439.687 426.928 439.687 425.965V422.791L398.511 409.627Z" fill="#263238"/>
<path d="M446.253 338.401H346.814C344.283 338.401 342.23 340.46 342.23 343V356.969C342.23 359.509 344.283 361.568 346.814 361.568H446.253C448.785 361.568 450.837 359.509 450.837 356.969V343C450.837 340.46 448.785 338.401 446.253 338.401Z" fill="#263238"/>
<path d="M54.826 188.821L88.5528 189.108C88.5528 189.108 90.8448 188.821 91.3491 190.499C91.3491 190.499 97.2051 205.331 97.4802 210.643C97.7552 215.954 96.3342 215.115 98.6262 222.14C100.918 229.165 107.267 245.629 110.888 259.058C115.77 277.097 117.031 296.252 117.34 314.877C117.34 317.867 119.174 343.621 114.533 343.621C110.694 343.621 75.2019 348.346 74.7665 341.482C73.0704 314.119 77.9867 287.387 68.5208 260.783C64.8421 250.435 60.6248 239.535 57.5077 228.728C54.3906 217.92 53.8405 206.676 51.7777 195.616C50.4254 187.981 54.826 188.821 54.826 188.821Z" fill="#263238"/>
<path d="M51.5703 192.178C51.9027 188.269 54.8708 188.821 54.8708 188.821L88.5976 189.108C88.5976 189.108 90.8896 188.821 91.3938 190.499C91.3938 190.499 97.2499 205.331 97.5249 210.643C97.5995 212.046 97.5573 213.454 97.3988 214.851L96.6883 216C96.6883 216 95.5423 225.785 82.1914 226.348C68.8405 226.911 61.2426 220.749 58.4463 214.839C55.6501 208.93 54.5499 199.456 52.3152 193.857C52.0996 193.283 51.8509 192.722 51.5703 192.178Z" fill="#359A9C"/>
<path d="M59.3402 203.1C61.6322 211.275 60.2455 213.54 62.5031 227.612C64.7607 241.685 72.9202 257.506 76.0832 272.096C79.2462 286.686 77.9283 337.906 77.4355 340.183C77.2637 341.39 77.1985 342.609 77.2407 343.827C75.728 343.253 74.7997 342.471 74.7309 341.402C73.0349 314.038 77.9512 287.307 68.4852 260.702C64.8066 250.354 60.5893 239.455 57.4722 228.647C54.3551 217.84 53.805 206.595 51.7422 195.535C50.8941 190.936 52.2464 189.43 53.4153 188.981C55.9799 193.416 57.9709 198.161 59.3402 203.1Z" fill="#359A9C"/>
<path d="M124.49 409.627L124.719 409.443V377.848H120.135V357.877H136.878V377.848H132.351V409.983L172.393 422.791V425.965C172.393 426.928 172.011 427.852 171.332 428.534C170.653 429.215 169.732 429.598 168.771 429.598C167.811 429.598 166.89 429.215 166.211 428.534C165.531 427.852 165.15 426.928 165.15 425.965V425.516L131.79 421.607V426.425C131.741 427.235 131.386 427.996 130.797 428.552C130.208 429.108 129.43 429.418 128.621 429.418C127.812 429.418 127.034 429.108 126.445 428.552C125.856 427.996 125.501 427.235 125.452 426.425V421.446L90.5339 425.516V425.965C90.5616 426.458 90.4886 426.952 90.3194 427.416C90.1502 427.881 89.8884 428.305 89.5499 428.665C89.2115 429.024 88.8035 429.31 88.351 429.506C87.8985 429.701 87.4109 429.802 86.9182 429.802C86.4255 429.802 85.938 429.701 85.4855 429.506C85.033 429.31 84.625 429.024 84.2865 428.665C83.9481 428.305 83.6862 427.881 83.5171 427.416C83.3479 426.952 83.2749 426.458 83.3026 425.965V422.791L124.49 409.627Z" fill="#263238"/>
<path d="M76.7471 361.557H176.186C178.717 361.557 180.77 359.498 180.77 356.958V342.988C180.77 340.449 178.717 338.389 176.186 338.389H76.7471C74.2154 338.389 72.1631 340.449 72.1631 342.988V356.958C72.1631 359.498 74.2154 361.557 76.7471 361.557Z" fill="#263238"/>
<path d="M426.313 273.337H154.023V430.345H426.313V273.337Z" fill="#CCCCCC"/>
<path d="M426.106 277.108H154.16V281.454H426.106V277.108Z" fill="#263238"/>
<path d="M428.33 270.762H147.961V277.626H428.33V270.762Z" fill="#CCCCCC"/>
<path d="M226.519 257.126C226.519 257.126 229.728 271.509 229.545 275.522C229.362 279.534 221.809 290.284 221.615 287.824C221.679 285.739 222.129 283.684 222.944 281.765C222.944 281.765 220.297 285.363 219.357 285.214C218.417 285.064 220.113 280.098 220.113 280.098C220.113 280.098 217.283 282.937 216.332 282.397C215.38 281.857 218.406 277.66 218.406 277.66C218.406 277.66 214.968 281.259 214.83 280.121C214.693 278.982 217.844 274.257 217.844 274.257C217.844 274.257 214.635 267.439 214.406 264.599C214.427 262.616 215.086 260.692 216.286 259.115L226.519 257.126Z" fill="white"/>
<mask id="mask1_243_488" style="mask-type:luminance" maskUnits="userSpaceOnUse" x="214" y="257" width="16" height="32">
<path d="M226.519 257.126C226.519 257.126 229.728 271.509 229.545 275.522C229.362 279.534 221.809 290.284 221.615 287.824C221.679 285.739 222.129 283.684 222.944 281.765C222.944 281.765 220.297 285.363 219.357 285.214C218.417 285.064 220.113 280.098 220.113 280.098C220.113 280.098 217.283 282.937 216.332 282.397C215.38 281.857 218.406 277.66 218.406 277.66C218.406 277.66 214.968 281.259 214.83 280.121C214.693 278.982 217.844 274.257 217.844 274.257C217.844 274.257 214.635 267.439 214.406 264.599C214.427 262.616 215.086 260.692 216.286 259.115L226.519 257.126Z" fill="white"/>
</mask>
<g mask="url(#mask1_243_488)">
<path d="M226.519 257.126C226.519 257.126 229.728 271.509 229.545 275.522C229.362 279.534 221.809 290.284 221.615 287.824C221.679 285.739 222.129 283.684 222.944 281.765C222.944 281.765 220.297 285.363 219.357 285.214C218.417 285.064 220.113 280.098 220.113 280.098C220.113 280.098 217.283 282.937 216.332 282.397C215.38 281.857 218.406 277.66 218.406 277.66C218.406 277.66 214.968 281.259 214.83 280.121C214.693 278.982 217.844 274.257 217.844 274.257C217.844 274.257 214.635 267.439 214.406 264.599C214.427 262.616 215.086 260.692 216.286 259.115L226.519 257.126Z" fill="#D9D9D9"/>
</g>
<path d="M226.519 257.126C226.519 257.126 229.728 271.509 229.545 275.522C229.362 279.534 221.809 290.284 221.615 287.824C221.679 285.739 222.129 283.684 222.944 281.765C222.944 281.765 220.297 285.363 219.357 285.214C218.417 285.064 220.113 280.098 220.113 280.098C220.113 280.098 217.283 282.937 216.332 282.397C215.38 281.857 218.406 277.66 218.406 277.66C218.406 277.66 214.968 281.259 214.83 280.121C214.693 278.982 217.844 274.257 217.844 274.257C217.844 274.257 214.635 267.439 214.406 264.599C214.427 262.616 215.086 260.692 216.286 259.115L226.519 257.126Z" stroke="#263238" stroke-linecap="round" stroke-linejoin="round"/>
<path d="M225.76 257.126C225.76 257.126 228.052 267.163 227.846 270.003C227.639 272.843 224.82 281.167 222.746 279.649C220.672 278.132 224.064 272.463 224.064 272.463C224.064 272.463 218.242 268.359 216.901 264.507C215.56 260.656 216.328 259.023 216.328 259.023L225.76 257.126Z" fill="white"/>
<mask id="mask2_243_488" style="mask-type:luminance" maskUnits="userSpaceOnUse" x="216" y="257" width="12" height="23">
<path d="M225.76 257.126C225.76 257.126 228.052 267.163 227.846 270.003C227.639 272.843 224.82 281.167 222.746 279.649C220.672 278.132 224.064 272.463 224.064 272.463C224.064 272.463 218.242 268.359 216.901 264.507C215.56 260.656 216.328 259.023 216.328 259.023L225.76 257.126Z" fill="white"/>
</mask>
<g mask="url(#mask2_243_488)">
<path d="M225.76 257.126C225.76 257.126 228.052 267.163 227.846 270.003C227.639 272.843 224.82 281.167 222.746 279.649C220.672 278.132 224.064 272.463 224.064 272.463C224.064 272.463 218.242 268.359 216.901 264.507C215.56 260.656 216.328 259.023 216.328 259.023L225.76 257.126Z" fill="#D9D9D9"/>
</g>
<path d="M225.76 257.126C225.76 257.126 228.052 267.163 227.846 270.003C227.639 272.843 224.82 281.167 222.746 279.649C220.672 278.132 224.064 272.463 224.064 272.463C224.064 272.463 218.242 268.359 216.901 264.507C215.56 260.656 216.328 259.023 216.328 259.023L225.76 257.126Z" stroke="#263238" stroke-linecap="round" stroke-linejoin="round"/>
<path d="M218.854 210.09L226.887 258.092L215.565 260.656L204.242 223.646L218.854 210.09Z" fill="#263238" stroke="#263238" stroke-linecap="round" stroke-linejoin="round"/>
<path d="M215.562 233.545C215.562 233.545 216.295 290.71 217.384 306.105C218.473 321.499 214.462 342.022 210.817 347.886C207.173 353.749 191.083 390.426 191.817 392.599C192.55 394.772 195.839 401.394 195.839 403.222V410.914C195.839 410.914 214.095 423.009 215.562 423.009C217.029 423.009 218.851 425.941 215.195 428.149C211.539 430.356 170.627 430.345 168.805 428.873C167.603 427.791 166.719 426.399 166.249 424.849C166.249 424.849 160.405 427.045 160.771 421.549C161.138 416.053 167.705 392.599 167.705 392.599C167.705 392.599 163.694 366.937 165.149 350.45C166.605 333.963 171.727 314.164 171.727 310.14C171.727 306.116 166.616 279.35 165.883 274.958C165.149 270.566 154.56 258.092 159.305 248.204C164.049 238.316 167.705 222.542 169.172 221.45C170.638 220.358 190.361 219.61 198.395 221.45C206.428 223.289 215.195 223.278 215.562 233.545Z" fill="#263238" stroke="#263238" stroke-linecap="round" stroke-linejoin="round"/>
<path d="M179.349 118.319C179.349 118.319 173.103 123.929 172.026 125.872C170.949 127.815 157.839 146.568 157.621 159.973C157.403 173.379 167.316 213.919 167.316 213.919L152.418 251.941L156.727 253.665L161.024 248.917V256.045C161.024 256.045 165.975 260.575 178.879 264.887C191.783 269.198 208.354 264.243 208.354 264.243L213.293 232.694V263.817L219.104 259.931L219.574 208.101C219.574 208.101 224.307 180.266 224.307 172.459C224.307 164.653 211.185 140.267 205.375 133.185C199.564 126.102 189.881 120.239 187.039 118.077C184.197 115.916 179.349 118.319 179.349 118.319Z" fill="#263238"/>
<mask id="mask3_243_488" style="mask-type:luminance" maskUnits="userSpaceOnUse" x="152" y="117" width="73" height="150">
<path d="M179.349 118.319C179.349 118.319 173.103 123.929 172.026 125.872C170.949 127.815 157.839 146.568 157.621 159.973C157.403 173.379 167.316 213.919 167.316 213.919L152.418 251.941L156.727 253.665L161.024 248.917V256.045C161.024 256.045 165.975 260.575 178.879 264.887C191.783 269.198 208.354 264.243 208.354 264.243L213.293 232.694V263.817L219.104 259.931L219.574 208.101C219.574 208.101 224.307 180.266 224.307 172.459C224.307 164.653 211.185 140.267 205.375 133.185C199.564 126.102 189.881 120.239 187.039 118.077C184.197 115.916 179.349 118.319 179.349 118.319Z" fill="white"/>
</mask>
<g mask="url(#mask3_243_488)">
<path opacity="0.17" d="M179.349 118.319C179.349 118.319 173.103 123.929 172.026 125.872C170.949 127.815 157.839 146.568 157.621 159.973C157.403 173.379 167.316 213.919 167.316 213.919L152.418 251.941L156.727 253.665L161.024 248.917V256.045C161.024 256.045 165.975 260.575 178.879 264.887C191.783 269.198 208.354 264.243 208.354 264.243L213.293 232.694V263.817L219.104 259.931L219.574 208.101C219.574 208.101 224.307 180.266 224.307 172.459C224.307 164.653 211.185 140.267 205.375 133.185C199.564 126.102 189.881 120.239 187.039 118.077C184.197 115.916 179.349 118.319 179.349 118.319Z" fill="white"/>
<path d="M160.969 164.273C160.969 164.273 168.784 169.827 173.987 171.781" stroke="#263238" stroke-linecap="round" stroke-linejoin="round"/>
<path d="M163.246 170.16C163.246 170.16 172.036 172.46 176.586 172.46" stroke="#263238" stroke-linecap="round" stroke-linejoin="round"/>
<path d="M175.945 222.381L200.676 225.324L199.049 230.544L176.266 227.934" stroke="#263238" stroke-linecap="round" stroke-linejoin="round"/>
</g>
<path d="M179.349 118.319C179.349 118.319 173.103 123.929 172.026 125.872C170.949 127.815 157.839 146.568 157.621 159.973C157.403 173.379 167.316 213.919 167.316 213.919L152.418 251.941L156.727 253.665L161.024 248.917V256.045C161.024 256.045 165.975 260.575 178.879 264.887C191.783 269.198 208.354 264.243 208.354 264.243L213.293 232.694V263.817L219.104 259.931L219.574 208.101C219.574 208.101 224.307 180.266 224.307 172.459C224.307 164.653 211.185 140.267 205.375 133.185C199.564 126.102 189.881 120.239 187.039 118.077C184.197 115.916 179.349 118.319 179.349 118.319Z" stroke="#263238" stroke-linecap="round" stroke-linejoin="round"/>
<path d="M178.051 119.572L201.933 145.475L215.915 172.241C215.915 172.241 212.901 152.385 210.322 146.947C207.744 141.509 196.123 128.034 194.817 125.01C193.51 121.986 178.051 119.572 178.051 119.572Z" fill="white" stroke="#263238" stroke-linecap="round" stroke-linejoin="round"/>
<path d="M209.306 159.617L215.918 172.264C215.918 172.264 213.867 158.732 211.69 150.971L210.326 147.005C208.495 143.783 206.419 140.707 204.115 137.807L200.367 137.06L201.937 145.522L206.773 149.488L209.306 159.617Z" fill="#263238" stroke="#263238" stroke-linecap="round" stroke-linejoin="round"/>
<path d="M202.935 129.333L204.172 130.77L208.057 135.369L210.349 147.05L200.391 137.082C200.391 137.082 201.697 131.069 202.935 129.333Z" fill="white" stroke="#263238" stroke-linecap="round" stroke-linejoin="round"/>
<path d="M214.198 81.1936C214.198 81.1936 219.424 85.2177 220.077 89.1038C220.73 92.9899 218.782 97.3129 219 98.819C219.218 100.325 223.08 103.786 222.873 105.51C222.667 107.235 219.435 107.879 219.435 107.879C219.435 107.879 215.929 120.687 215.069 122.825C214.21 124.964 209.901 124.332 206.68 123.906L200.87 141.152L181.709 118.537L184.723 109.466C184.723 109.466 176.552 99.5434 175.899 88.9658C175.246 78.3883 183.646 71.053 195.69 69.5468C207.735 68.0407 217.854 73.8583 219.137 76.2383C220.421 78.6182 214.198 81.1936 214.198 81.1936Z" fill="white"/>
<mask id="mask4_243_488" style="mask-type:luminance" maskUnits="userSpaceOnUse" x="175" y="69" width="48" height="73">
<path d="M214.198 81.1936C214.198 81.1936 219.424 85.2177 220.077 89.1038C220.73 92.9899 218.782 97.3129 219 98.819C219.218 100.325 223.08 103.786 222.873 105.51C222.667 107.235 219.435 107.879 219.435 107.879C219.435 107.879 215.929 120.687 215.069 122.825C214.21 124.964 209.901 124.332 206.68 123.906L200.87 141.152L181.709 118.537L184.723 109.466C184.723 109.466 176.552 99.5434 175.899 88.9658C175.246 78.3883 183.646 71.053 195.69 69.5468C207.735 68.0407 217.854 73.8583 219.137 76.2383C220.421 78.6182 214.198 81.1936 214.198 81.1936Z" fill="white"/>
</mask>
<g mask="url(#mask4_243_488)">
<path d="M214.198 81.1936C214.198 81.1936 219.424 85.2177 220.077 89.1038C220.73 92.9899 218.782 97.3129 219 98.819C219.218 100.325 223.08 103.786 222.873 105.51C222.667 107.235 219.435 107.879 219.435 107.879C219.435 107.879 215.929 120.687 215.069 122.825C214.21 124.964 209.901 124.332 206.68 123.906L200.87 141.152L181.709 118.537L184.723 109.466C184.723 109.466 176.552 99.5434 175.899 88.9658C175.246 78.3883 183.646 71.053 195.69 69.5468C207.735 68.0407 217.854 73.8583 219.137 76.2383C220.421 78.6182 214.198 81.1936 214.198 81.1936Z" fill="#D9D9D9"/>
<path d="M191.874 130.563C195.106 129.908 200.527 128.781 205.409 127.677L206.669 123.929C209.351 124.286 212.789 124.791 214.347 123.699C210.68 122.182 201.604 119.526 199.747 116.111C197.455 111.868 205.477 99.5204 205.477 93.3463C205.477 87.1722 197.788 80.2278 197.788 80.2278C194.086 76.6982 187.336 75.6289 181.343 75.6289C179.456 77.2818 177.979 79.3526 177.028 81.6775C176.077 84.0023 175.679 86.5173 175.865 89.0233C176.518 99.6008 184.689 109.523 184.689 109.523L181.675 118.594L191.874 130.563Z" fill="#B8B8B8"/>
</g>
<path d="M214.198 81.1936C214.198 81.1936 219.424 85.2177 220.077 89.1038C220.73 92.9899 218.782 97.3129 219 98.819C219.218 100.325 223.08 103.786 222.873 105.51C222.667 107.235 219.435 107.879 219.435 107.879C219.435 107.879 215.929 120.687 215.069 122.825C214.21 124.964 209.901 124.332 206.68 123.906L200.87 141.152L181.709 118.537L184.723 109.466C184.723 109.466 176.552 99.5434 175.899 88.9658C175.246 78.3883 183.646 71.053 195.69 69.5468C207.735 68.0407 217.854 73.8583 219.137 76.2383C220.421 78.6182 214.198 81.1936 214.198 81.1936Z" stroke="#263238" stroke-linecap="round" stroke-linejoin="round"/>
<path d="M214.197 81.1939C214.197 81.1939 220.431 78.607 219.136 76.2385C217.841 73.8701 207.734 68.0294 195.689 69.5471C183.645 71.0647 175.256 78.3885 175.898 88.9661C176.539 99.5436 184.722 109.466 184.722 109.466L184.264 110.845C188.721 113.03 193.328 109.466 193.328 109.466C192.487 109.891 191.533 110.037 190.604 109.882C189.674 109.727 188.818 109.279 188.16 108.603C185.581 106.235 185.364 98.6813 188.595 98.0259C191.827 97.3706 193.97 98.6813 193.97 101.05C193.97 103.418 194.612 101.912 196.342 101.694C198.073 101.475 196.549 96.3013 197.626 95.439C199.367 94.3578 200.897 92.9668 202.141 91.3345C204.078 88.7476 198.485 86.5976 197.844 84.2177C197.202 81.8377 214.197 81.1939 214.197 81.1939Z" fill="#263238" stroke="#263238" stroke-linecap="round" stroke-linejoin="round"/>
<path d="M215.734 98.0488L211.746 99.3825H215.356" stroke="#263238" stroke-linecap="round" stroke-linejoin="round"/>
<path d="M217.258 94.0478C217.258 94.0478 215.551 91.5759 213.648 92.7141C211.746 93.8524 211.562 94.6227 211.562 94.6227" stroke="#263238" stroke-linecap="round" stroke-linejoin="round"/>
<path d="M213.156 111.386C214.323 112.186 215.747 112.514 217.144 112.306" stroke="#263238" stroke-linecap="round" stroke-linejoin="round"/>
<path d="M180.847 114.433L204.936 138.175L202.793 148.315L177.191 120.687L180.847 114.433Z" fill="white" stroke="#263238" stroke-linecap="round" stroke-linejoin="round"/>
<path d="M273.391 205.204C273.391 205.204 264.911 200.145 263.536 200.605C262.16 201.065 248.867 210.723 249.784 213.022C250.7 215.322 257.806 218.311 261.931 219.921C266.057 221.53 274.537 218.081 274.537 218.081L273.391 205.204Z" fill="white" stroke="#263238" stroke-linecap="round" stroke-linejoin="round"/>
<path d="M248.684 203.365C248.684 203.365 256.018 199.226 257.164 199.226C258.31 199.226 264.957 205.204 264.957 205.204L262.207 209.343C262.207 209.343 270.916 213.712 269.999 215.322C269.083 216.931 265.645 219.461 261.977 219.921C258.31 220.381 247.996 213.712 247.996 213.712L248.684 203.365Z" fill="white"/>
<mask id="mask5_243_488" style="mask-type:luminance" maskUnits="userSpaceOnUse" x="247" y="199" width="24" height="21">
<path d="M248.684 203.365C248.684 203.365 256.018 199.226 257.164 199.226C258.31 199.226 264.957 205.204 264.957 205.204L262.207 209.343C262.207 209.343 270.916 213.712 269.999 215.322C269.083 216.931 265.645 219.461 261.977 219.921C258.31 220.381 247.996 213.712 247.996 213.712L248.684 203.365Z" fill="white"/>
</mask>
<g mask="url(#mask5_243_488)">
<path d="M248.684 203.365C248.684 203.365 256.018 199.226 257.164 199.226C258.31 199.226 264.957 205.204 264.957 205.204L262.207 209.343C262.207 209.343 270.916 213.712 269.999 215.322C269.083 216.931 265.645 219.461 261.977 219.921C258.31 220.381 247.996 213.712 247.996 213.712L248.684 203.365Z" fill="#D9D9D9"/>
</g>
<path d="M248.684 203.365C248.684 203.365 256.018 199.226 257.164 199.226C258.31 199.226 264.957 205.204 264.957 205.204L262.207 209.343C262.207 209.343 270.916 213.712 269.999 215.322C269.083 216.931 265.645 219.461 261.977 219.921C258.31 220.381 247.996 213.712 247.996 213.712L248.684 203.365Z" stroke="#263238" stroke-linecap="round" stroke-linejoin="round"/>
<path d="M243.595 201.525L250.013 202.675L247.95 213.712L242.449 211.872L243.595 201.525Z" fill="white" stroke="#263238" stroke-linecap="round" stroke-linejoin="round"/>
<path d="M169.116 137.37C169.116 137.37 162.928 149.327 162.24 155.305C161.553 161.284 186.765 208.883 188.598 210.493C190.432 212.102 244.053 213.712 244.053 213.712L246.345 201.985L200.505 188.878L184.92 140.819" fill="#263238"/>
<mask id="mask6_243_488" style="mask-type:luminance" maskUnits="userSpaceOnUse" x="162" y="137" width="85" height="77">
<path d="M169.116 137.37C169.116 137.37 162.928 149.327 162.24 155.305C161.553 161.284 186.765 208.883 188.598 210.493C190.432 212.102 244.053 213.712 244.053 213.712L246.345 201.985L200.505 188.878L184.92 140.819" fill="white"/>
</mask>
<g mask="url(#mask6_243_488)">
<path opacity="0.17" d="M169.116 137.37C169.116 137.37 162.928 149.327 162.24 155.305C161.553 161.284 186.765 208.883 188.598 210.493C190.432 212.102 244.053 213.712 244.053 213.712L246.345 201.985L200.505 188.878L184.92 140.819" fill="#C2E1E1"/>
</g>
<path d="M169.116 137.37C169.116 137.37 162.928 149.327 162.24 155.305C161.553 161.284 186.765 208.883 188.598 210.493C190.432 212.102 244.053 213.712 244.053 213.712L246.345 201.985L200.505 188.878L184.92 140.819" stroke="#263238" stroke-linecap="round" stroke-linejoin="round"/>
<path d="M265.371 201.754C265.371 201.754 262.162 198.995 261.016 202.214C259.87 205.434 252.765 213.252 255.974 213.482C259.182 213.712 265.142 207.043 265.142 207.043" fill="white"/>
<path d="M265.371 201.754C265.371 201.754 262.162 198.995 261.016 202.214C259.87 205.434 252.765 213.252 255.974 213.482C259.182 213.712 265.142 207.043 265.142 207.043" stroke="#263238" stroke-linecap="round" stroke-linejoin="round"/>
<path d="M251.156 214.632C251.156 214.632 250.331 218.506 252.302 220.151C253.688 221.3 254.468 218.081 254.135 215.782C253.803 213.482 251.843 212.792 251.156 214.632Z" fill="white" stroke="#263238" stroke-linecap="round" stroke-linejoin="round"/>
<path d="M254.41 215.552C254.41 215.552 253.585 219.426 255.556 221.07C256.942 222.22 257.722 219.001 257.389 216.701C257.057 214.402 255.051 213.712 254.41 215.552Z" fill="white" stroke="#263238" stroke-linecap="round" stroke-linejoin="round"/>
<path d="M257.574 216.931C257.574 216.931 256.749 220.806 258.72 222.45C260.106 223.6 260.886 220.38 260.553 218.081C260.221 215.781 258.261 215.092 257.574 216.931Z" fill="white" stroke="#263238" stroke-linecap="round" stroke-linejoin="round"/>
<path d="M260.75 218.805C260.75 218.805 259.994 221.415 261.805 222.519C263.077 223.301 263.799 221.128 263.489 219.576C263.18 218.023 261.381 217.564 260.75 218.805Z" fill="white" stroke="#263238" stroke-linecap="round" stroke-linejoin="round"/>
<path d="M273.391 205.204L274.078 219.921L279.121 218.541L277.975 204.974L273.391 205.204Z" stroke="#263238" stroke-linecap="round" stroke-linejoin="round"/>
<path d="M276.828 203.824L279.12 221.3L317.397 217.161L318.313 194.396L276.828 203.824Z" fill="#263238" stroke="#263238" stroke-linecap="round" stroke-linejoin="round"/>
<path d="M209.717 273.487C209.717 273.487 202.772 320.028 202.772 335.791C202.772 351.554 192.183 377.94 191.816 392.599" stroke="white" stroke-linecap="round" stroke-linejoin="round"/>
<path d="M168.806 428.85C170.628 430.322 211.54 430.322 215.196 428.126C218.851 425.93 217.018 422.986 215.562 422.986C214.107 422.986 195.84 410.891 195.84 410.891C195.84 410.891 185.973 418.594 180.495 420.422C175.017 422.25 166.25 422.618 166.25 422.618V424.826C166.72 426.376 167.604 427.768 168.806 428.85Z" fill="white" stroke="#263238" stroke-linecap="round" stroke-linejoin="round"/>
<path d="M215.195 428.149C217.12 426.999 217.487 425.619 217.258 424.596C211.885 425.662 206.427 426.235 200.95 426.309C189.914 426.608 172.552 425.93 166.57 425.677C167.066 426.912 167.852 428.009 168.862 428.873C170.627 430.345 211.539 430.345 215.195 428.149Z" fill="white" stroke="#263238" stroke-linecap="round" stroke-linejoin="round"/>
<path d="M165.187 425.137L166.253 422.642L167.709 392.599C167.709 392.599 161.131 416.054 160.775 421.549C160.5 425.55 163.526 425.47 165.187 425.137Z" fill="#263238" stroke="#263238" stroke-linecap="round" stroke-linejoin="round"/>
<path d="M322.956 264.323C322.956 264.323 319.311 318.936 322.956 340.918C326.6 362.901 335.779 401.026 337.2 405.786C338.096 408.628 338.484 411.605 338.346 414.582L358.802 417.514C358.802 417.514 352.591 345.322 352.591 336.894C352.591 328.467 359.536 265.427 359.536 265.427L322.956 264.323Z" fill="#263238" stroke="#263238" stroke-linecap="round" stroke-linejoin="round"/>
<path d="M338.3 414.582C338.3 414.582 316.022 424.113 313.455 425.941C310.888 427.769 318.944 430.345 328.8 430.345C338.655 430.345 348.534 429.195 348.534 429.195L352.545 426.999L352.912 429.563H363.501C363.501 429.563 365.334 420.767 364.647 418.571C364.126 417.069 363.517 415.599 362.824 414.168L338.3 414.582Z" fill="#263238" stroke="#263238" stroke-linecap="round" stroke-linejoin="round"/>
<path d="M319.664 259.931C319.664 259.931 321.498 312.336 325.875 331.031C330.253 349.726 337.931 395.163 337.931 399.923C337.96 402.644 337.593 405.355 336.843 407.971L335.376 412.754C335.626 413.895 336.011 415.003 336.522 416.054C336.522 416.054 346.011 418.25 352.222 418.25C356.104 418.215 359.962 417.63 363.682 416.513C363.682 416.513 363.877 405.016 364.243 399.555C364.61 394.094 362.788 358.877 362.788 350.45C362.788 342.022 360.588 337.251 360.588 326.995C360.588 316.74 358.766 289.25 359.132 284.846C359.499 280.443 364.61 275.648 365.71 270.187C366.81 264.726 367.899 258.828 367.899 258.828L319.664 259.931Z" fill="#263238" stroke="#263238" stroke-linecap="round" stroke-linejoin="round"/>
<path d="M324.043 315.026C324.043 315.026 334.254 386.091 336.809 390.575C338.334 393.436 338.742 396.764 337.955 399.911" stroke="white" stroke-linecap="round" stroke-linejoin="round"/>
<path d="M310.9 218.518C310.9 218.518 309.537 232.533 309.537 243.249C309.537 249.227 309.479 257.046 309.422 262.702C309.406 265.03 310.197 267.291 311.661 269.097C313.125 270.903 315.169 272.142 317.444 272.601C319.844 273.131 322.288 273.427 324.744 273.487L316.161 220.162C316.161 220.162 312.276 213.574 310.9 218.518Z" fill="#263238" stroke="#263238" stroke-linecap="round" stroke-linejoin="round"/>
<path d="M351.457 123.021C353.549 124.126 355.459 125.55 357.118 127.241C358.58 129.169 359.876 131.22 360.991 133.369C360.991 133.369 376.52 151.328 376.886 153.156C377.253 154.984 368.119 212.712 368.119 212.712L378.525 267.313C378.525 267.313 361.725 276.66 348.935 277.212C339.939 277.603 326.405 274.717 319.139 272.969C317.694 272.626 316.392 271.834 315.42 270.708C314.447 269.581 313.852 268.176 313.719 266.692C313.008 259.012 311.679 243.697 310.9 229.199C310.006 212.355 312.55 178.99 314.338 167.263C316.125 155.536 321.832 139.6 326.21 133.001C330.588 126.401 342.655 119.572 351.457 123.021Z" fill="#263238" stroke="#263238" stroke-linecap="round" stroke-linejoin="round"/>
<path d="M360.99 133.369C359.885 131.249 358.605 129.226 357.162 127.321C355.504 125.63 353.594 124.207 351.501 123.102C344.213 120.216 334.678 124.401 329.143 129.69C328.409 131.322 322.634 144.544 319.895 155.352C316.972 166.849 317.339 181.382 317.339 181.382C317.339 181.382 327.023 168.919 340.167 154.259C346.731 146.932 353.9 140.175 361.597 134.059L360.99 133.369Z" fill="#263238"/>
<mask id="mask7_243_488" style="mask-type:luminance" maskUnits="userSpaceOnUse" x="317" y="122" width="45" height="60">
<path d="M360.99 133.369C359.885 131.249 358.605 129.226 357.162 127.321C355.504 125.63 353.594 124.207 351.501 123.102C344.213 120.216 334.678 124.401 329.143 129.69C328.409 131.322 322.634 144.544 319.895 155.352C316.972 166.849 317.339 181.382 317.339 181.382C317.339 181.382 327.023 168.919 340.167 154.259C346.731 146.932 353.9 140.175 361.597 134.059L360.99 133.369Z" fill="white"/>
</mask>
<g mask="url(#mask7_243_488)">
<path opacity="0.17" d="M360.99 133.369C359.885 131.249 358.605 129.226 357.162 127.321C355.504 125.63 353.594 124.207 351.501 123.102C344.213 120.216 334.678 124.401 329.143 129.69C328.409 131.322 322.634 144.544 319.895 155.352C316.972 166.849 317.339 181.382 317.339 181.382C317.339 181.382 327.023 168.919 340.167 154.259C346.731 146.932 353.9 140.175 361.597 134.059L360.99 133.369Z" fill="white"/>
</g>
<path d="M360.99 133.369C359.885 131.249 358.605 129.226 357.162 127.321C355.504 125.63 353.594 124.207 351.501 123.102C344.213 120.216 334.678 124.401 329.143 129.69C328.409 131.322 322.634 144.544 319.895 155.352C316.972 166.849 317.339 181.382 317.339 181.382C317.339 181.382 327.023 168.919 340.167 154.259C346.731 146.932 353.9 140.175 361.597 134.059L360.99 133.369Z" stroke="#263238" stroke-linecap="round" stroke-linejoin="round"/>
<path d="M327.895 138.117C327.895 138.117 322.956 153.65 321.455 158.042C319.954 162.434 319.805 169.321 319.805 169.321C319.805 169.321 338.301 141.555 342.816 136.887C347.332 132.219 353.234 124.93 353.234 124.93L349.257 123.78L327.895 138.117Z" fill="white" stroke="#263238" stroke-linecap="round" stroke-linejoin="round"/>
<path d="M329.258 132.483C329.258 132.483 327.07 138.945 327.07 139.382C327.07 139.819 326.52 145.981 326.52 145.981L334.324 135.392L329.258 132.483Z" fill="white" stroke="#263238" stroke-linecap="round" stroke-linejoin="round"/>
<path d="M349.115 119.572L327.754 137.025L331.043 146.636L352.954 124.24L349.115 119.572Z" fill="white" stroke="#263238" stroke-linecap="round" stroke-linejoin="round"/>
<path d="M346.356 258C346.356 258 343.319 265.576 342.413 268.06C341.508 270.543 341.966 280.27 342.081 281.293C342.196 282.316 343.995 282.535 343.995 282.535C343.995 282.535 344.556 290.33 345.232 290.583C345.935 290.759 346.653 290.87 347.376 290.916C347.376 290.916 348.613 294.883 350.195 294.538C350.67 294.393 351.093 294.112 351.412 293.731C351.731 293.349 351.933 292.883 351.994 292.388C352.514 292.437 353.037 292.348 353.512 292.13C353.986 291.912 354.396 291.573 354.698 291.146C355.342 290.196 355.873 289.174 356.28 288.1C356.28 288.1 358.984 286.743 359.202 285.72C359.42 284.696 360.108 281.121 360.108 281.121C360.108 281.121 360.898 280.891 360.898 278.522C360.898 276.154 359.099 261.564 359.099 261.564L346.356 258Z" fill="white" stroke="#263238" stroke-linecap="round" stroke-linejoin="round"/>
<path d="M343.996 282.535L344.328 275.66" stroke="#263238" stroke-linecap="round" stroke-linejoin="round"/>
<path d="M347.375 290.893L348.108 280.718" stroke="#263238" stroke-linecap="round" stroke-linejoin="round"/>
<path d="M351.996 292.365L352.523 281.351" stroke="#263238" stroke-linecap="round" stroke-linejoin="round"/>
<path d="M356.281 288.077L356.934 280.408" stroke="#263238" stroke-linecap="round" stroke-linejoin="round"/>
<path d="M368.621 148.154L376.838 153.098L374.099 210.09L359.487 263.955L345.609 260.299L349.987 217.759L347.798 174.886C347.798 174.886 350.904 164.894 358.021 159.399" fill="#263238"/>
<path d="M368.621 148.154L376.838 153.098L374.099 210.09L359.487 263.955L345.609 260.299L349.987 217.759L347.798 174.886C347.798 174.886 350.904 164.894 358.021 159.399" stroke="#263238" stroke-linecap="round" stroke-linejoin="round"/>
<path d="M351.716 157.777C351.716 157.777 347.98 167.297 347.797 174.908" stroke="white" stroke-linecap="round" stroke-linejoin="round"/>
<path d="M354.834 162.308C354.834 162.308 348.439 172.782 348.439 177.519C348.439 182.255 350.124 221.783 350.124 221.783L345.746 255.907" stroke="white" stroke-linecap="round" stroke-linejoin="round"/>
<path d="M315.146 84.6546C315.146 84.6546 310.757 97.1636 311.17 98.9572C311.582 100.751 311.995 103.487 311.995 103.487C311.995 103.487 305.119 112.007 305.967 112.972C306.815 113.938 310.62 115.03 310.62 115.03C310.62 115.03 313.771 128.229 315.009 129.46C316.247 130.69 323.913 127.953 323.913 127.953L332.13 138.393L348.976 122.182L346.925 113.662C346.925 113.662 355.829 97.9914 355.692 90.5642C355.554 83.1369 340.358 73.2492 329.529 73.3872C318.699 73.5251 308.568 77.5147 310.62 80.4005C311.828 82.1097 313.368 83.5566 315.146 84.6546Z" fill="white"/>
<mask id="mask8_243_488" style="mask-type:luminance" maskUnits="userSpaceOnUse" x="305" y="73" width="51" height="66">
<path d="M315.146 84.6546C315.146 84.6546 310.757 97.1636 311.17 98.9572C311.582 100.751 311.995 103.487 311.995 103.487C311.995 103.487 305.119 112.007 305.967 112.972C306.815 113.938 310.62 115.03 310.62 115.03C310.62 115.03 313.771 128.229 315.009 129.46C316.247 130.69 323.913 127.953 323.913 127.953L332.13 138.393L348.976 122.182L346.925 113.662C346.925 113.662 355.829 97.9914 355.692 90.5642C355.554 83.1369 340.358 73.2492 329.529 73.3872C318.699 73.5251 308.568 77.5147 310.62 80.4005C311.828 82.1097 313.368 83.5566 315.146 84.6546Z" fill="white"/>
</mask>
<g mask="url(#mask8_243_488)">
<path d="M350.375 81.9756C348.288 82.2814 346.249 82.8612 344.313 83.7002L328.166 90.2651C328.166 90.2651 320.476 96.8186 321.29 101.831C322.103 106.844 328.979 113.789 327.444 118.802C325.908 123.814 316.293 129.218 316.293 129.218L319.307 129.333C321.599 128.793 323.96 127.953 323.96 127.953L325.22 129.552L340.783 130.115L349.023 122.182L346.971 113.662C346.971 113.662 355.876 97.9914 355.738 90.5641C355.647 87.8277 353.538 84.7579 350.375 81.9756Z" fill="#B8B8B8"/>
</g>
<path d="M315.146 84.6546C315.146 84.6546 310.757 97.1636 311.17 98.9572C311.582 100.751 311.995 103.487 311.995 103.487C311.995 103.487 305.119 112.007 305.967 112.972C306.815 113.938 310.62 115.03 310.62 115.03C310.62 115.03 313.771 128.229 315.009 129.46C316.247 130.69 323.913 127.953 323.913 127.953L332.13 138.393L348.976 122.182L346.925 113.662C346.925 113.662 355.829 97.9915 355.692 90.5642C355.554 83.1369 340.358 73.2492 329.529 73.3872C318.699 73.5251 308.568 77.5147 310.62 80.4005C311.828 82.1097 313.368 83.5566 315.146 84.6546Z" stroke="#263238" stroke-linecap="round" stroke-linejoin="round"/>
<path d="M346.931 113.662C346.931 113.662 355.835 97.9915 355.698 90.5642C355.56 83.1369 340.364 73.2492 329.535 73.3872C318.705 73.5251 308.574 77.5147 310.626 80.4005C311.834 82.1097 313.374 83.5566 315.152 84.6546C315.152 84.6546 321.868 87.8163 321.868 88.6441C321.868 89.4719 317.891 93.8639 319.267 95.7955C320.642 97.727 327.208 100.049 327.208 100.049C327.208 100.049 326.062 103.763 327.758 104.177C329.455 104.591 330.222 102.935 331.311 101.878C332.4 100.82 336.25 99.2561 336.8 103.936C337.124 107.292 336.247 110.654 334.325 113.421C333.786 113.823 341.316 118.917 344.639 117.399C345.499 117.008 346.507 116.491 347.515 115.95L346.931 113.662Z" fill="#263238" stroke="#263238" stroke-linecap="round" stroke-linejoin="round"/>
<path d="M314.049 106.925C314.58 106.925 315.011 105.262 315.011 103.211C315.011 101.16 314.58 99.4976 314.049 99.4976C313.517 99.4976 313.086 101.16 313.086 103.211C313.086 105.262 313.517 106.925 314.049 106.925Z" stroke="#263238" stroke-linecap="round" stroke-linejoin="round"/>
<path d="M315.148 101.705L331.307 101.843" stroke="#263238" stroke-linecap="round" stroke-linejoin="round"/>
<path d="M312.492 97.2329C312.492 97.2329 314.028 94.7725 315.563 97.8423" stroke="#263238" stroke-linecap="round" stroke-linejoin="round"/>
<path d="M312.184 117.272C313.846 116.593 315.392 115.658 316.768 114.501" stroke="#263238" stroke-linecap="round" stroke-linejoin="round"/>
<path d="M61.0469 430.345H512.078" stroke="#263238" stroke-width="2" stroke-miterlimit="10"/>
</svg>
