<svg width="71" height="71" viewBox="0 0 71 71" fill="none" xmlns="http://www.w3.org/2000/svg">
<path d="M29.8888 34.9339C31.069 34.9339 32.2227 34.5839 33.204 33.9282C34.1853 33.2725 34.9501 32.3405 35.4017 31.2501C35.8533 30.1598 35.9714 28.96 35.7411 27.8025C35.5107 26.645 34.9423 25.5818 34.1077 24.7473C33.2731 23.9129 32.2098 23.3446 31.0523 23.1145C29.8948 22.8844 28.695 23.0027 27.6047 23.4545C26.5144 23.9063 25.5825 24.6712 24.927 25.6526C24.2715 26.634 23.9217 27.7878 23.9219 28.968C23.9236 30.5499 24.5528 32.0666 25.6715 33.185C26.7902 34.3035 28.3069 34.9325 29.8888 34.9339ZM29.8888 25.0892C30.656 25.0892 31.4059 25.3167 32.0438 25.7429C32.6816 26.1691 33.1788 26.7749 33.4724 27.4836C33.7659 28.1924 33.8428 28.9723 33.6931 29.7247C33.5434 30.4771 33.174 31.1682 32.6316 31.7107C32.0891 32.2531 31.398 32.6226 30.6456 32.7722C29.8932 32.9219 29.1133 32.8451 28.4045 32.5515C27.6958 32.2579 27.09 31.7608 26.6638 31.1229C26.2376 30.4851 26.0101 29.7351 26.0101 28.968C26.0109 27.9395 26.4198 26.9534 27.1471 26.2262C27.8743 25.499 28.8604 25.09 29.8888 25.0892Z" fill="#006643"/>
<path d="M42.4921 35.4559C43.3697 35.4559 44.2276 35.1957 44.9573 34.7081C45.6871 34.2205 46.2559 33.5275 46.5918 32.7167C46.9276 31.9058 47.0154 31.0136 46.8442 30.1529C46.673 29.2921 46.2503 28.5015 45.6298 27.8809C45.0092 27.2603 44.2185 26.8377 43.3578 26.6665C42.497 26.4953 41.6048 26.5831 40.794 26.919C39.9832 27.2548 39.2902 27.8236 38.8027 28.5533C38.3151 29.283 38.0547 30.1409 38.0547 31.0186C38.0561 32.195 38.5241 33.3229 39.3559 34.1547C40.1878 34.9866 41.3156 35.4545 42.4921 35.4559ZM42.4921 28.6694C42.9567 28.6694 43.4109 28.8072 43.7972 29.0653C44.1835 29.3234 44.4846 29.6903 44.6624 30.1196C44.8403 30.5488 44.8869 31.0212 44.7962 31.4769C44.7056 31.9326 44.4817 32.3512 44.1532 32.6797C43.8247 33.0082 43.4062 33.232 42.9505 33.3226C42.4948 33.4133 42.0224 33.3667 41.5932 33.1889C41.1639 33.0111 40.7969 32.71 40.5388 32.3237C40.2807 31.9374 40.1429 31.4832 40.1429 31.0186C40.1434 30.3957 40.3911 29.7985 40.8316 29.358C41.272 28.9176 41.8692 28.6699 42.4921 28.6694Z" fill="#006643"/>
<path d="M42.4919 36.6775C41.4384 36.6807 40.3963 36.8959 39.4277 37.3102C38.4591 37.7246 37.5838 38.3296 36.8539 39.0894C35.2629 37.767 33.3283 36.9252 31.2763 36.6622C29.2243 36.3993 27.1399 36.7262 25.267 37.6046C23.394 38.483 21.8099 39.8767 20.7001 41.6225C19.5903 43.3684 19.0006 45.3942 19 47.4629C19 47.7398 19.11 48.0054 19.3058 48.2012C19.5016 48.397 19.7672 48.507 20.0441 48.507H39.7355C40.0125 48.507 40.278 48.397 40.4738 48.2012C40.6696 48.0054 40.7796 47.7398 40.7796 47.4629C40.7779 46.8221 40.7195 46.1827 40.6053 45.5522H49.2785C49.5554 45.5522 49.8209 45.4422 50.0167 45.2464C50.2126 45.0506 50.3226 44.7851 50.3226 44.5082C50.3203 42.432 49.4946 40.4415 48.0266 38.9735C46.5585 37.5055 44.5681 36.6797 42.4919 36.6775ZM21.1498 46.4188C21.3848 44.4173 22.3 42.5571 23.7424 41.1496C25.1847 39.7421 27.0667 38.8726 29.0734 38.6866C31.0801 38.5006 33.0899 39.0094 34.7663 40.1278C36.4428 41.2463 37.6843 42.9065 38.2832 44.8308C38.4501 45.3476 38.5658 45.8794 38.6288 46.4188H21.1498ZM39.9976 43.4641C39.5891 42.4218 39.0217 41.449 38.3156 40.5803C39.0413 39.8057 39.9678 39.2476 40.9919 38.9684C42.016 38.6891 43.0975 38.6994 44.116 38.9984C45.1345 39.2973 46.0501 39.873 46.7608 40.6614C47.4715 41.4499 47.9495 42.4201 48.1415 43.4641H39.9976Z" fill="#006643"/>
<circle cx="35.5" cy="35.5" r="35.5" fill="#006643" fill-opacity="0.16"/>
</svg>
