<svg width="16" height="19" viewBox="0 0 16 19" fill="none" xmlns="http://www.w3.org/2000/svg">
<path d="M14.0252 5.22614C13.8042 5.22614 13.5923 5.31391 13.4361 5.47015C13.2798 5.6264 13.1921 5.83831 13.1921 6.05927V15.3829C13.1682 15.8042 12.9788 16.199 12.6651 16.4813C12.3514 16.7635 11.939 16.9105 11.5175 16.89H4.86906C4.44758 16.9105 4.03508 16.7635 3.72143 16.4813C3.40777 16.199 3.21836 15.8042 3.19447 15.3829V6.05927C3.19447 5.83831 3.10669 5.6264 2.95045 5.47015C2.7942 5.31391 2.58229 5.22614 2.36133 5.22614C2.14037 5.22614 1.92846 5.31391 1.77222 5.47015C1.61597 5.6264 1.5282 5.83831 1.5282 6.05927V15.3829C1.55198 16.2462 1.91692 17.0649 2.5431 17.6597C3.16929 18.2545 4.00566 18.5769 4.86906 18.5563H11.5175C12.3809 18.5769 13.2172 18.2545 13.8434 17.6597C14.4696 17.0649 14.8346 16.2462 14.8583 15.3829V6.05927C14.8583 5.83831 14.7706 5.6264 14.6143 5.47015C14.4581 5.31391 14.2462 5.22614 14.0252 5.22614Z" fill="#E55555"/>
<path d="M14.8585 2.72554H11.5259V1.05927C11.5259 0.838308 11.4381 0.626397 11.2819 0.470154C11.1257 0.313912 10.9138 0.226135 10.6928 0.226135H5.69399C5.47303 0.226135 5.26112 0.313912 5.10488 0.470154C4.94863 0.626397 4.86086 0.838308 4.86086 1.05927V2.72554H1.52832C1.30736 2.72554 1.09545 2.81331 0.93921 2.96955C0.782967 3.1258 0.69519 3.33771 0.69519 3.55867C0.69519 3.77963 0.782967 3.99154 0.93921 4.14778C1.09545 4.30403 1.30736 4.3918 1.52832 4.3918H14.8585C15.0794 4.3918 15.2913 4.30403 15.4476 4.14778C15.6038 3.99154 15.6916 3.77963 15.6916 3.55867C15.6916 3.33771 15.6038 3.1258 15.4476 2.96955C15.2913 2.81331 15.0794 2.72554 14.8585 2.72554V2.72554ZM6.52712 2.72554V1.8924H9.85966V2.72554H6.52712Z" fill="#E55555"/>
<path d="M7.36024 13.5553V7.72333C7.36024 7.50237 7.27246 7.29046 7.11622 7.13422C6.95997 6.97797 6.74806 6.8902 6.5271 6.8902C6.30614 6.8902 6.09423 6.97797 5.93799 7.13422C5.78175 7.29046 5.69397 7.50237 5.69397 7.72333V13.5553C5.69397 13.7762 5.78175 13.9881 5.93799 14.1444C6.09423 14.3006 6.30614 14.3884 6.5271 14.3884C6.74806 14.3884 6.95997 14.3006 7.11622 14.1444C7.27246 13.9881 7.36024 13.7762 7.36024 13.5553Z" fill="#E55555"/>
<path d="M10.6928 13.5553V7.72333C10.6928 7.50237 10.605 7.29046 10.4487 7.13422C10.2925 6.97797 10.0806 6.8902 9.85962 6.8902C9.63866 6.8902 9.42675 6.97797 9.27051 7.13422C9.11427 7.29046 9.02649 7.50237 9.02649 7.72333V13.5553C9.02649 13.7762 9.11427 13.9881 9.27051 14.1444C9.42675 14.3006 9.63866 14.3884 9.85962 14.3884C10.0806 14.3884 10.2925 14.3006 10.4487 14.1444C10.605 13.9881 10.6928 13.7762 10.6928 13.5553Z" fill="#E55555"/>
</svg>
